<svg width="117" height="34" viewBox="0 0 117 34" fill="none" xmlns="http://www.w3.org/2000/svg">
<g clip-path="url(#clip0_3_2)">
<path d="M2.66182 27V5.18182H10.034C11.7456 5.18182 13.1448 5.49077 14.2314 6.10866C15.3252 6.71946 16.1348 7.54688 16.6604 8.59091C17.186 9.63494 17.4488 10.7997 17.4488 12.0852C17.4488 13.3707 17.186 14.5391 16.6604 15.5902C16.1419 16.6413 15.3394 17.4794 14.2527 18.1044C13.1661 18.7223 11.774 19.0312 10.0766 19.0312H4.7925V16.6875H9.99137C11.1632 16.6875 12.1043 16.4851 12.8145 16.0803C13.5247 15.6754 14.0397 15.1286 14.3593 14.4396C14.686 13.7436 14.8493 12.9588 14.8493 12.0852C14.8493 11.2116 14.686 10.4304 14.3593 9.74148C14.0397 9.05256 13.5212 8.51278 12.8039 8.12216C12.0865 7.72443 11.1348 7.52557 9.94875 7.52557H5.30387V27H2.66182ZM20.3731 27H17.6032L25.6146 5.18182H28.3419L36.3532 27H33.5833L27.0635 8.63352H26.893L20.3731 27ZM21.3958 18.4773H32.5606V20.821H21.3958V18.4773ZM51.6835 10.6364C51.5556 9.55682 51.0372 8.71875 50.1281 8.12216C49.219 7.52557 48.1039 7.22727 46.7829 7.22727C45.817 7.22727 44.9718 7.38352 44.2474 7.69602C43.5301 8.00852 42.969 8.43821 42.5642 8.98508C42.1664 9.53196 41.9676 10.1534 41.9676 10.8494C41.9676 11.4318 42.1061 11.9325 42.3831 12.3516C42.6671 12.7635 43.0294 13.108 43.4697 13.3849C43.91 13.6548 44.3717 13.8786 44.8546 14.0561C45.3376 14.2266 45.7815 14.3651 46.1863 14.4716L48.4022 15.0682C48.9704 15.2173 49.6025 15.4233 50.2985 15.6861C51.0017 15.9489 51.6728 16.3075 52.312 16.7621C52.9583 17.2095 53.491 17.7848 53.91 18.4879C54.3291 19.1911 54.5386 20.054 54.5386 21.0767C54.5386 22.2557 54.2296 23.321 53.6118 24.2727C53.001 25.2244 52.1061 25.9808 50.9271 26.5419C49.7552 27.103 48.3312 27.3835 46.6551 27.3835C45.0926 27.3835 43.7396 27.1314 42.5961 26.6271C41.4598 26.1229 40.5649 25.4197 39.9115 24.5178C39.2652 23.6158 38.8994 22.5682 38.8142 21.375H41.5414C41.6125 22.1989 41.8894 22.8807 42.3724 23.4205C42.8625 23.9531 43.4804 24.3509 44.2261 24.6136C44.9789 24.8693 45.7886 24.9972 46.6551 24.9972C47.6636 24.9972 48.5691 24.8338 49.3717 24.5071C50.1743 24.1733 50.8099 23.7116 51.2787 23.1222C51.7474 22.5256 51.9818 21.8295 51.9818 21.0341C51.9818 20.3097 51.7794 19.7202 51.3745 19.2656C50.9697 18.8111 50.437 18.4418 49.7765 18.1577C49.116 17.8736 48.4022 17.625 47.6352 17.4119L44.9505 16.6449C43.246 16.1548 41.8966 15.4553 40.9022 14.5462C39.9079 13.6371 39.4108 12.4474 39.4108 10.9773C39.4108 9.75568 39.741 8.69034 40.4015 7.78125C41.0691 6.86506 41.964 6.15483 43.0862 5.65057C44.2154 5.1392 45.4761 4.88352 46.8681 4.88352C48.2744 4.88352 49.5244 5.13565 50.6181 5.63991C51.7119 6.13707 52.5784 6.81889 53.2176 7.68537C53.8639 8.55185 54.2048 9.53551 54.2403 10.6364H51.6835Z" fill="#FFC200"/>
<path d="M59.8579 28.105L59.8499 26.797L59.855 26.358L59.8469 25.05V24.611C59.8469 24.175 59.8442 23.739 59.8389 23.303L59.844 22.864L59.835 21.557L59.8398 21.118C59.8398 20.682 59.8371 20.2463 59.8318 19.811L59.8369 19.372C59.8369 18.936 59.8342 18.5003 59.8289 18.065V17.626L59.8208 16.319V15.88L59.813 14.573V14.134C59.813 13.698 59.8103 13.2624 59.8049 12.827L59.8098 12.388C59.8098 11.952 59.8073 11.5163 59.802 11.081V10.642C59.802 10.206 59.7993 9.77036 59.7939 9.33502V8.896C59.7939 8.46 59.7912 8.02401 59.7859 7.58801V7.14899C59.7859 6.71299 59.7832 6.277 59.7778 5.841L59.783 5.40198C59.8121 5.0389 59.907 4.68413 60.063 4.35498L60.2209 4.14801L61.0669 3.461L61.4668 3.26099L62.7109 2.93799L63.3508 2.888C63.9796 2.93663 64.6113 2.93663 65.24 2.888C65.4531 2.938 65.6756 2.93076 65.885 2.867C66.5124 2.93209 67.1445 2.93744 67.7729 2.883C67.986 2.93305 68.2086 2.9258 68.418 2.862C69.0454 2.92713 69.6775 2.93248 70.3059 2.87799C70.519 2.92804 70.7415 2.9208 70.9509 2.85699C71.5783 2.92215 72.2104 2.9275 72.8389 2.87299C73.052 2.92299 73.2745 2.91575 73.4839 2.85199C74.1113 2.91711 74.7434 2.92246 75.3718 2.86798C75.5849 2.91803 75.8075 2.91079 76.0168 2.84698C76.6443 2.91207 77.2764 2.91742 77.9048 2.86298C78.1179 2.91298 78.3404 2.90574 78.5498 2.84198C79.1772 2.90707 79.8096 2.91248 80.438 2.85803C80.6511 2.90794 80.8736 2.90064 81.083 2.83698C81.7104 2.902 82.3425 2.90741 82.9709 2.85303C83.184 2.90298 83.4066 2.89574 83.616 2.83203C84.2434 2.89712 84.8755 2.90247 85.5039 2.84802C85.717 2.89812 85.9396 2.89088 86.1489 2.82703C86.7763 2.8921 87.4084 2.89744 88.0369 2.84302C88.2499 2.89312 88.4725 2.88587 88.6819 2.82202C89.3093 2.88713 89.9414 2.89248 90.5698 2.83801C90.7829 2.88802 91.0055 2.88077 91.2148 2.81702C91.8422 2.88219 92.4744 2.88754 93.1028 2.83301C93.3159 2.88306 93.5384 2.87582 93.7478 2.81201C94.3752 2.87717 95.0076 2.88252 95.636 2.828C95.8491 2.8781 96.0716 2.87086 96.281 2.80701C96.9084 2.87208 97.5405 2.87742 98.1689 2.823C98.382 2.8731 98.6046 2.86585 98.814 2.802C99.4414 2.86707 100.073 2.87242 100.702 2.81799L101.471 2.84302C102.515 2.92096 103.49 3.39325 104.198 4.164C104.725 4.764 105.324 5.33899 105.891 5.92499C106.227 6.36551 106.605 6.77244 107.02 7.14001C108.156 8.41401 109.33 9.67098 110.561 10.902L111.666 12.102C112.806 13.337 113.926 14.581 115.147 15.78C115.483 16.2178 115.859 16.6235 116.27 16.992C116.508 17.1903 116.688 17.449 116.791 17.7409C116.895 18.0329 116.917 18.3472 116.857 18.651L116.709 19.003L116.03 19.782C115.917 19.8332 115.828 19.9271 115.784 20.043C115.541 20.2319 115.329 20.4584 115.157 20.714C115.005 20.8091 114.881 20.9426 114.797 21.101L113.984 21.966L113.875 22.087C113.55 22.3628 113.261 22.6775 113.013 23.024C112.978 23.0291 112.946 23.0457 112.922 23.071C112.898 23.0964 112.883 23.1291 112.879 23.164C112.592 23.3939 112.34 23.6632 112.129 23.964C111.979 24.0544 111.856 24.1836 111.773 24.338C111.526 24.5364 111.31 24.7699 111.131 25.031L110.785 25.388L110.074 26.162L109.831 26.423C109.55 26.6546 109.303 26.9238 109.096 27.223C108.982 27.2748 108.893 27.3687 108.847 27.485C108.602 27.6777 108.388 27.9075 108.213 28.166C108.063 28.2577 107.941 28.3879 107.859 28.543C107.556 28.7957 107.287 29.0868 107.059 29.409L106.932 29.541C106.647 29.773 106.395 30.042 106.182 30.341C106.03 30.4346 105.906 30.5664 105.822 30.723C105.576 30.9193 105.361 31.1511 105.184 31.411L104.834 31.775L104.186 32.475L103.828 32.821L102.841 33.408L102.541 33.52C102.043 33.6328 101.535 33.6998 101.025 33.72L100.386 33.726H98.4919L97.8528 33.731H95.959L95.3198 33.736H93.4258L92.7869 33.741H90.8928L90.2539 33.746H88.3599L87.7209 33.752H85.8269L85.188 33.757H83.2939L82.6548 33.762H80.761L80.1218 33.767H78.2278L77.5889 33.772H75.6948L75.0559 33.777H73.1619L72.5229 33.782H70.6289L69.99 33.787H68.095L67.4558 33.792H65.562L64.9099 33.798L63.1099 33.79L62.262 33.69C61.3229 33.4845 60.5017 32.919 59.9749 32.115L59.8369 31.59L59.8208 30.282V29.843L59.813 28.535L59.8579 28.105Z" fill="black"/>
<path d="M72.7362 14.5341L71.2305 14.9602C71.1358 14.7093 70.9962 14.4654 70.8115 14.2287C70.6316 13.9872 70.3854 13.7884 70.0729 13.6321C69.7604 13.4759 69.3603 13.3977 68.8726 13.3977C68.205 13.3977 67.6486 13.5516 67.2035 13.8594C66.7632 14.1624 66.543 14.5483 66.543 15.017C66.543 15.4337 66.6946 15.7628 66.9976 16.0043C67.3006 16.2457 67.7741 16.447 68.418 16.608L70.0374 17.0057C71.0127 17.2424 71.7395 17.6046 72.2178 18.0923C72.696 18.5753 72.9351 19.1979 72.9351 19.9602C72.9351 20.5852 72.7552 21.1439 72.3953 21.6364C72.0402 22.1288 71.543 22.517 70.9038 22.8011C70.2646 23.0852 69.5213 23.2273 68.6737 23.2273C67.561 23.2273 66.6401 22.9858 65.9109 22.5028C65.1818 22.0199 64.7201 21.3144 64.526 20.3864L66.1169 19.9886C66.2684 20.5758 66.5549 21.0161 66.9763 21.3097C67.4024 21.6032 67.9588 21.75 68.6453 21.75C69.4266 21.75 70.0468 21.5843 70.5061 21.2528C70.9701 20.9167 71.2021 20.5142 71.2021 20.0455C71.2021 19.6667 71.0696 19.3494 70.8044 19.0938C70.5392 18.8333 70.1321 18.6392 69.5828 18.5114L67.7646 18.0852C66.7656 17.8485 66.0317 17.4815 65.5629 16.9844C65.0989 16.4825 64.8669 15.8551 64.8669 15.1023C64.8669 14.4867 65.0397 13.9422 65.3854 13.4688C65.7357 12.9953 66.2116 12.6236 66.8129 12.3537C67.419 12.0838 68.1055 11.9489 68.8726 11.9489C69.9521 11.9489 70.7997 12.1856 71.4152 12.6591C72.0355 13.1326 72.4758 13.7576 72.7362 14.5341ZM75.4582 23V12.0909H77.0775V13.7955H77.2195C77.4468 13.2131 77.8138 12.7609 78.3204 12.4389C78.827 12.1122 79.4354 11.9489 80.1457 11.9489C80.8654 11.9489 81.4643 12.1122 81.9425 12.4389C82.4255 12.7609 82.8019 13.2131 83.0718 13.7955H83.1854C83.4648 13.232 83.8838 12.7846 84.4425 12.4531C85.0013 12.117 85.6712 11.9489 86.4525 11.9489C87.4279 11.9489 88.2257 12.2543 88.8459 12.8651C89.4662 13.4711 89.7763 14.4157 89.7763 15.6989V23H88.1002V15.6989C88.1002 14.8939 87.88 14.3187 87.4397 13.973C86.9994 13.6274 86.4809 13.4545 85.8843 13.4545C85.1173 13.4545 84.523 13.6866 84.1016 14.1506C83.6802 14.6098 83.4695 15.1922 83.4695 15.8977V23H81.765V15.5284C81.765 14.9081 81.5638 14.4086 81.1613 14.0298C80.7588 13.6463 80.2404 13.4545 79.6059 13.4545C79.1703 13.4545 78.7631 13.5705 78.3843 13.8026C78.0102 14.0346 77.7072 14.3565 77.4752 14.7685C77.2479 15.1757 77.1343 15.6468 77.1343 16.1818V23H75.4582ZM97.4148 23.2273C96.3637 23.2273 95.457 22.9953 94.6947 22.5312C93.9371 22.0625 93.3523 21.4091 92.9404 20.571C92.5332 19.7282 92.3296 18.7481 92.3296 17.6307C92.3296 16.5133 92.5332 15.5284 92.9404 14.6761C93.3523 13.8191 93.9253 13.1515 94.6592 12.6733C95.3978 12.1903 96.2595 11.9489 97.2444 11.9489C97.8126 11.9489 98.3736 12.0436 98.9276 12.233C99.4816 12.4223 99.9859 12.7301 100.44 13.1562C100.895 13.5777 101.257 14.1364 101.527 14.8324C101.797 15.5284 101.932 16.3854 101.932 17.4034V18.1136H93.5228V16.6648H100.227C100.227 16.0492 100.104 15.5 99.858 15.017C99.6165 14.5341 99.2709 14.1529 98.8211 13.8736C98.376 13.5942 97.8504 13.4545 97.2444 13.4545C96.5768 13.4545 95.9991 13.6203 95.5114 13.9517C95.0285 14.2784 94.6568 14.7045 94.3964 15.2301C94.136 15.7557 94.0057 16.3191 94.0057 16.9205V17.8864C94.0057 18.7102 94.1478 19.4086 94.4319 19.9815C94.7207 20.5497 95.1208 20.983 95.6322 21.2812C96.1435 21.5748 96.7378 21.7216 97.4148 21.7216C97.8552 21.7216 98.2529 21.66 98.608 21.5369C98.9679 21.4091 99.278 21.2197 99.5384 20.9688C99.7988 20.7131 100 20.3958 100.142 20.017L101.761 20.4716C101.591 21.0208 101.305 21.5038 100.902 21.9205C100.5 22.3324 100.002 22.6544 99.4106 22.8864C98.8187 23.1136 98.1535 23.2273 97.4148 23.2273Z" fill="white"/>
</g>
<defs>
<clipPath id="clip0_3_2">
<rect width="116.937" height="34" fill="white"/>
</clipPath>
</defs>
</svg>
