<svg xmlns="http://www.w3.org/2000/svg" width="116.937" height="34" viewBox="0 0 116.937 34">
  <g id="Group_935" data-name="Group 935" transform="translate(-2724.547 -498.734)">
    <text id="PAS" transform="translate(2752.547 526.734)" fill="#ffc200" font-size="30" font-family="ArialRoundedMTBold, Arial Rounded MT Bold" letter-spacing="-0.05em"><tspan x="-27.98" y="0">PAS</tspan></text>
    <path id="Path_796" data-name="Path 796" d="M3260.791,569.165l-.008-1.308.005-.439-.008-1.308,0-.439q0-.654-.008-1.308l.005-.439-.009-1.307.005-.439q0-.654-.008-1.307l.005-.439q0-.654-.008-1.307l0-.439-.008-1.307,0-.439-.008-1.307,0-.439q0-.654-.008-1.307l.005-.439q0-.654-.008-1.307l0-.439q0-.654-.008-1.307l0-.439q0-.654-.008-1.308l0-.439q0-.654-.008-1.308l.005-.439a3.006,3.006,0,0,1,.28-1.047l.158-.207.846-.687.4-.2,1.244-.323.64-.05a12.247,12.247,0,0,0,1.889,0,1.241,1.241,0,0,0,.645-.021,9.963,9.963,0,0,0,1.888.016,1.24,1.24,0,0,0,.645-.021,9.956,9.956,0,0,0,1.888.016,1.24,1.24,0,0,0,.645-.021,9.951,9.951,0,0,0,1.888.016,1.241,1.241,0,0,0,.645-.021,9.958,9.958,0,0,0,1.888.016,1.24,1.24,0,0,0,.645-.021,9.964,9.964,0,0,0,1.888.016,1.241,1.241,0,0,0,.645-.021,9.963,9.963,0,0,0,1.888.016,1.243,1.243,0,0,0,.645-.021,9.973,9.973,0,0,0,1.888.016,1.242,1.242,0,0,0,.645-.021,9.963,9.963,0,0,0,1.888.016,1.239,1.239,0,0,0,.645-.021,9.966,9.966,0,0,0,1.888.016,1.239,1.239,0,0,0,.645-.021,9.959,9.959,0,0,0,1.888.016,1.241,1.241,0,0,0,.645-.021,9.948,9.948,0,0,0,1.888.016,1.24,1.24,0,0,0,.645-.021,9.951,9.951,0,0,0,1.888.016,1.239,1.239,0,0,0,.645-.021,9.966,9.966,0,0,0,1.888.016,1.239,1.239,0,0,0,.645-.021,9.966,9.966,0,0,0,1.888.016l.769.025a4.12,4.12,0,0,1,2.727,1.321c.527.6,1.126,1.175,1.693,1.761a8.576,8.576,0,0,0,1.129,1.215c1.136,1.274,2.31,2.531,3.541,3.762l1.105,1.2c1.14,1.235,2.26,2.479,3.481,3.678a8.939,8.939,0,0,0,1.123,1.212,1.723,1.723,0,0,1,.587,1.659l-.148.352-.679.779a.472.472,0,0,0-.246.261,2.894,2.894,0,0,0-.627.671,1.019,1.019,0,0,0-.36.387l-.813.865-.109.121a5.2,5.2,0,0,0-.862.937.158.158,0,0,0-.134.14,3.886,3.886,0,0,0-.75.8.976.976,0,0,0-.356.374,3.239,3.239,0,0,0-.642.693l-.346.357-.711.774-.243.261a3.957,3.957,0,0,0-.735.8.482.482,0,0,0-.249.262,3.007,3.007,0,0,0-.634.681.98.98,0,0,0-.354.377,4.542,4.542,0,0,0-.8.866l-.127.132a4.107,4.107,0,0,0-.75.8,1.016,1.016,0,0,0-.36.382,3.153,3.153,0,0,0-.638.688l-.35.364-.648.7-.358.346-.987.587-.3.112a8.372,8.372,0,0,1-1.516.2l-.639.006h-1.894l-.639.005h-1.894l-.639.005h-1.894l-.639.005h-1.894l-.639.005h-1.894l-.639.006h-1.894l-.639.005h-1.894l-.639.005h-1.894l-.639.005h-1.894l-.639.005h-1.894l-.639.005h-1.894l-.639.005h-1.894l-.639.005h-1.895l-.639.005h-1.894l-.652.006-1.8-.008-.848-.1a3.673,3.673,0,0,1-2.287-1.575l-.138-.525-.016-1.308,0-.439-.008-1.308Z" transform="translate(-476.386 -42.326)" fill="#fff"/>
    <text id="sme" transform="translate(2810.547 522.734)" fill="#020626" font-size="20" font-family="Cocogoose" letter-spacing="-0.05em"><tspan x="-22.525" y="0">sme</tspan></text>
  </g>
</svg>
